<svg xmlns:dc="http://purl.org/dc/elements/1.1/" xmlns:cc="http://creativecommons.org/ns#" xmlns:rdf="http://www.w3.org/1999/02/22-rdf-syntax-ns#" xmlns:svg="http://www.w3.org/2000/svg" xmlns="http://www.w3.org/2000/svg" xmlns:sodipodi="http://sodipodi.sourceforge.net/DTD/sodipodi-0.dtd" xmlns:inkscape="http://www.inkscape.org/namespaces/inkscape" viewBox="0 0 8.4666665 10.583333625" version="1.1" x="0px" y="0px"><svg:g style="" display="inline"><svg:path style="color:#000000;font-style:normal;font-variant:normal;font-weight:normal;font-stretch:normal;font-size:medium;line-height:normal;font-family:sans-serif;font-variant-ligatures:normal;font-variant-position:normal;font-variant-caps:normal;font-variant-numeric:normal;font-variant-alternates:normal;font-feature-settings:normal;text-indent:0;text-align:start;text-decoration:none;text-decoration-line:none;text-decoration-style:solid;text-decoration-color:#000000;letter-spacing:normal;word-spacing:normal;text-transform:none;writing-mode:lr-tb;direction:ltr;text-orientation:mixed;dominant-baseline:auto;baseline-shift:baseline;text-anchor:start;white-space:normal;shape-padding:0;clip-rule:nonzero;display:inline;overflow:visible;visibility:visible;opacity:1;isolation:auto;mix-blend-mode:normal;color-interpolation:sRGB;color-interpolation-filters:linearRGB;solid-color:#000000;solid-opacity:1;vector-effect:none;fill:#000000;fill-opacity:1;fill-rule:nonzero;stroke:none;stroke-width:0.5291658;stroke-linecap:butt;stroke-linejoin:miter;stroke-miterlimit:4;stroke-dasharray:none;stroke-dashoffset:0;stroke-opacity:1;color-rendering:auto;image-rendering:auto;shape-rendering:auto;text-rendering:auto;enable-background:accumulate" d="m 0.79373133,0.37885324 a 0.26460926,0.26460926 0 0 0 -0.254765,0.19275 l -0.529167,1.87998996 a 0.26460934,0.26460934 0 0 0 0,10e-4 0.26460926,0.26460926 0 0 0 -0.0057,0.0248 0.26460934,0.26460934 0 0 0 0,0.001 0.26460926,0.26460926 0 0 0 -0.003099997,0.0253 0.26460934,0.26460934 0 0 0 0,0.001 0.26460926,0.26460926 0 0 0 0,5.292e-4 0.26460934,0.26460934 0 0 0 -9.9999966667e-4,0.018101 v 0.7120801 c 0,0.4200398 0.21052899666667,0.7911 0.52916699666667,1.0195701 v 3.5682598 a 0.26460926,0.26460926 0 0 0 0.264583,0.26458 H 7.6729173 a 0.26460926,0.26460926 0 0 0 0.264583,-0.26449 V 4.2555832 C 8.2564523,4.0271433 8.4666673,3.6557733 8.4666673,3.2354933 V 2.5233932 a 0.26460926,0.26460926 0 0 0 -5.29e-4,-0.0155 0.26460934,0.26460934 0 0 0 -0.0016,-0.0186 0.26460926,0.26460926 0 0 0 -0.0031,-0.0186 0.26460934,0.26460934 0 0 0 -5.29e-4,-0.003 0.26460926,0.26460926 0 0 0 -0.0041,-0.016 l -0.02481,-0.0868 v -0.10595 h -0.02998 L 7.9276283,0.57171324 a 0.26460926,0.26460926 0 0 0 -0.254765,-0.19276 z m 0.200503,0.52916 H 1.9843563 V 2.2588332 H 0.61389633 Z m 1.51928897,0 h 1.455208 V 2.2588332 h -1.455208 z m 1.984375,0 h 1.455208 V 2.2588332 h -1.455208 z m 1.984375,0 h 0.990118 L 7.8527303,2.2588332 H 6.4822733 Z M 0.52914733,2.7880032 H 1.9843563 v 0.44752 c 0,0.40747 -0.320132,0.7275999 -0.727605,0.7275999 -0.40747097,0 -0.72760397,-0.3201299 -0.72760397,-0.7275999 z m 1.98437597,0 h 1.455208 v 0.44752 c 0,0.40747 -0.320132,0.7275999 -0.727604,0.7275999 -0.407472,0 -0.727604,-0.3201299 -0.727604,-0.7275999 z m 1.984375,0 h 1.455208 v 0.44752 c 0,0.40747 -0.320132,0.7275999 -0.727604,0.7275999 -0.407472,0 -0.727604,-0.3201299 -0.727604,-0.7275999 z m 1.984375,0 h 1.455208 v 0.44752 c 0,0.40747 -0.320132,0.7275999 -0.727604,0.7275999 -0.407472,0 -0.727604,-0.3201299 -0.727604,-0.7275999 z m -4.233334,1.2087101 c 0.230217,0.2989199 0.587653,0.4955799 0.992188,0.4955799 0.404456,0 0.761971,-0.19676 0.992187,-0.4955799 0.230217,0.2989199 0.587653,0.4955799 0.992188,0.4955799 0.404453,0 0.761963,-0.19676 0.992187,-0.4955799 0.230217,0.2989199 0.587653,0.4955799 0.992188,0.4955799 0.06788,0 0.133403,-0.010001 0.198437,-0.020201 V 7.5587224 H 6.7385883 V 5.3159622 a 0.26460926,0.26460926 0 0 0 -0.264583,-0.26453 h -1.446425 a 0.26460926,0.26460926 0 0 0 -0.264583,0.2645801 v 2.2427601 h -3.704683 v -3.086629 c 0.06516,0.010501 0.130416,0.020201 0.198437,0.020201 0.404456,0 0.761964,-0.1967701 0.992188,-0.4955799 z m -0.255799,1.0547199 a 0.26460926,0.26460926 0 0 0 -0.264583,0.2645802 v 1.31362 a 0.26460926,0.26460926 0 0 0 0.264583,0.26458 h 2.092378 a 0.26460926,0.26460926 0 0 0 0.264584,-0.26458 v -1.31362 A 0.26460926,0.26460926 0 0 0 4.0855183,5.0514332 Z m 0.264584,0.5291702 h 1.563211 v 0.78444 h -1.563211 z m 3.03444,0 h 0.917257 v 1.97817 h -0.917257 z"/></svg:g><text x="0" y="23.4666669" fill="#000000" font-size="5px" font-weight="bold" font-family="'Helvetica Neue', Helvetica, Arial-Unicode, Arial, Sans-serif">Created by Alzam</text><text x="0" y="28.4666669" fill="#000000" font-size="5px" font-weight="bold" font-family="'Helvetica Neue', Helvetica, Arial-Unicode, Arial, Sans-serif">from the Noun Project</text></svg>